<svg xmlns="http://www.w3.org/2000/svg" xmlns:xlink="http://www.w3.org/1999/xlink" contentStyleType="text/css" height="1005px" preserveAspectRatio="none" style="width:1642px;height:1005px;background:#FFFFFF;" version="1.1" viewBox="0 0 1642 1005" width="1642px" zoomAndPan="magnify"><defs/><g><!--cluster 81c3b080dad537de7e10e0987a4bf52e--><g id="cluster_81c3b080dad537de7e10e0987a4bf52e"><polygon fill="none" points="16,272.89,26,262.89,684,262.89,684,878.75,674,888.75,16,888.75,16,272.89" style="stroke:#181818;stroke-width:1.0;"/><line style="stroke:#181818;stroke-width:1.0;" x1="674" x2="684" y1="272.89" y2="262.89"/><line style="stroke:#181818;stroke-width:1.0;" x1="16" x2="674" y1="272.89" y2="272.89"/><line style="stroke:#181818;stroke-width:1.0;" x1="674" x2="674" y1="272.89" y2="888.75"/><text fill="#000000" font-family="sans-serif" font-size="14" font-weight="bold" lengthAdjust="spacing" textLength="45" x="323.5" y="288.8851">Mysql</text></g><!--cluster 8d3213f993d957c2b2630071896dce34--><g id="cluster_8d3213f993d957c2b2630071896dce34"><path d="M751.5,6 L815.5,6 A3.75,3.75 0 0 1 818,8.5 L825,28.2969 L1385.5,28.2969 A2.5,2.5 0 0 1 1388,30.7969 L1388,640.96 A2.5,2.5 0 0 1 1385.5,643.46 L751.5,643.46 A2.5,2.5 0 0 1 749,640.96 L749,8.5 A2.5,2.5 0 0 1 751.5,6 " fill="none" style="stroke:#000000;stroke-width:1.5;"/><line style="stroke:#000000;stroke-width:1.5;" x1="749" x2="825" y1="28.2969" y2="28.2969"/><text fill="#000000" font-family="sans-serif" font-size="14" font-weight="bold" lengthAdjust="spacing" textLength="63" x="753" y="20.9951">service/</text></g><!--cluster adf939326b1e37150e5ef06a32dc7ff4--><g id="cluster_adf939326b1e37150e5ef06a32dc7ff4"><path d="M775.5,49 L883.5,49 A3.75,3.75 0 0 1 886,51.5 L893,71.2969 L1047.5,71.2969 A2.5,2.5 0 0 1 1050,73.7969 L1050,476.17 A2.5,2.5 0 0 1 1047.5,478.67 L775.5,478.67 A2.5,2.5 0 0 1 773,476.17 L773,51.5 A2.5,2.5 0 0 1 775.5,49 " fill="none" style="stroke:#000000;stroke-width:1.5;"/><line style="stroke:#000000;stroke-width:1.5;" x1="773" x2="893" y1="71.2969" y2="71.2969"/><text fill="#000000" font-family="sans-serif" font-size="14" font-weight="bold" lengthAdjust="spacing" textLength="107" x="777" y="63.9951">management/</text></g><!--cluster c2b03f1ad3db5c874bd3072e369ea299--><g id="cluster_c2b03f1ad3db5c874bd3072e369ea299"><path d="M799.5,92 L890.5,92 A3.75,3.75 0 0 1 893,94.5 L900,114.2969 L1023.5,114.2969 A2.5,2.5 0 0 1 1026,116.7969 L1026,452.17 A2.5,2.5 0 0 1 1023.5,454.67 L799.5,454.67 A2.5,2.5 0 0 1 797,452.17 L797,94.5 A2.5,2.5 0 0 1 799.5,92 " fill="none" style="stroke:#000000;stroke-width:1.5;"/><line style="stroke:#000000;stroke-width:1.5;" x1="797" x2="900" y1="114.2969" y2="114.2969"/><text fill="#000000" font-family="sans-serif" font-size="14" font-weight="bold" lengthAdjust="spacing" textLength="90" x="801" y="106.9951">commands/</text></g><!--cluster b07e5a11775d979b2367d2075345033a--><g id="cluster_b07e5a11775d979b2367d2075345033a"><path d="M1414.5,92 L1458.5,92 A3.75,3.75 0 0 1 1461,94.5 L1468,114.2969 L1632.5,114.2969 A2.5,2.5 0 0 1 1635,116.7969 L1635,219.39 A2.5,2.5 0 0 1 1632.5,221.89 L1414.5,221.89 A2.5,2.5 0 0 1 1412,219.39 L1412,94.5 A2.5,2.5 0 0 1 1414.5,92 " fill="none" style="stroke:#000000;stroke-width:1.5;"/><line style="stroke:#000000;stroke-width:1.5;" x1="1412" x2="1468" y1="114.2969" y2="114.2969"/><text fill="#000000" font-family="sans-serif" font-size="14" font-weight="bold" lengthAdjust="spacing" textLength="43" x="1416" y="106.9951">spps/</text></g><!--entity 2f212a63290cbf6f793e32c9b888bf60--><g id="elem_2f212a63290cbf6f793e32c9b888bf60"><rect fill="#F1F1F1" height="176.6719" rx="2.5" ry="2.5" style="stroke:#181818;stroke-width:0.5;" width="601" x="39.5" y="310.89"/><rect fill="#F1F1F1" height="10" style="stroke:#181818;stroke-width:0.5;" width="15" x="620.5" y="315.89"/><rect fill="#F1F1F1" height="2" style="stroke:#181818;stroke-width:0.5;" width="4" x="618.5" y="317.89"/><rect fill="#F1F1F1" height="2" style="stroke:#181818;stroke-width:0.5;" width="4" x="618.5" y="321.89"/><text fill="#000000" font-family="sans-serif" font-size="14" font-weight="bold" lengthAdjust="spacing" textLength="46" x="54.5" y="343.8851">mysql</text><text fill="#000000" font-family="sans-serif" font-size="14" lengthAdjust="spacing" textLength="4" x="54.5" y="360.182">&#160;</text><text fill="#000000" font-family="sans-serif" font-size="14" lengthAdjust="spacing" textLength="561" x="54.5" y="376.4789">environment: MYSQL_ROOT_PASSWORD=${MYSQL_ROOT_PASSWORD:-rootpw}</text><text fill="#000000" font-family="sans-serif" font-size="14" lengthAdjust="spacing" textLength="439" x="54.5" y="392.7757">environment: MYSQL_DATABASE=${MYSQL_DATABASE:-spps}</text><text fill="#000000" font-family="sans-serif" font-size="14" lengthAdjust="spacing" textLength="365" x="54.5" y="409.0726">environment: MYSQL_USER=${MYSQL_USER:-spps}</text><text fill="#000000" font-family="sans-serif" font-size="14" lengthAdjust="spacing" textLength="471" x="54.5" y="425.3695">environment: MYSQL_PASSWORD=${MYSQL_PASSWORD:-sppspw}</text><text fill="#000000" font-family="sans-serif" font-size="14" lengthAdjust="spacing" textLength="118" x="54.5" y="441.6664">image: mysql:5.7</text><text fill="#000000" font-family="sans-serif" font-size="14" lengthAdjust="spacing" textLength="99" x="54.5" y="457.9632">restart: always</text><text fill="#000000" font-family="sans-serif" font-size="14" lengthAdjust="spacing" textLength="4" x="54.5" y="474.2601">&#160;</text></g><!--entity 56d413f1a16ecf6273b747ab3ec85f55--><g id="elem_56d413f1a16ecf6273b747ab3ec85f55"><ellipse cx="474" cy="588.01" fill="#F1F1F1" rx="8" ry="8" style="stroke:#181818;stroke-width:0.5;"/><text fill="#000000" font-family="sans-serif" font-size="14" lengthAdjust="spacing" textLength="36" x="456" y="618.0051">3306</text></g><!--entity 948e1669192c12608968517866d35c09--><g id="elem_948e1669192c12608968517866d35c09"><ellipse cx="595" cy="588.01" fill="#F1F1F1" rx="8" ry="8" style="stroke:#181818;stroke-width:0.5;"/><text fill="#000000" font-family="sans-serif" font-size="14" lengthAdjust="spacing" textLength="45" x="572.5" y="618.0051">33060</text></g><!--entity 98399632ea7e7ee0ad6ee6e4295513da--><g id="elem_98399632ea7e7ee0ad6ee6e4295513da"><rect fill="#F1F1F1" height="39.2969" rx="2.5" ry="2.5" style="stroke:#181818;stroke-width:0.5;" width="120" x="127" y="825.46"/><polygon fill="#F1F1F1" points="230,830.46,230,844.46,242,844.46,242,836.46,236,830.46,230,830.46" style="stroke:#181818;stroke-width:0.5;"/><line style="stroke:#181818;stroke-width:0.5;" x1="236" x2="236" y1="830.46" y2="836.46"/><line style="stroke:#181818;stroke-width:0.5;" x1="242" x2="236" y1="836.46" y2="836.46"/><text fill="#000000" font-family="sans-serif" font-size="14" lengthAdjust="spacing" textLength="90" x="137" y="851.4551">/var/lib/mysql</text></g><!--entity f8b4840ea2366506d4285845c3e62172--><g id="elem_f8b4840ea2366506d4285845c3e62172"><rect fill="#F1F1F1" height="39.2969" rx="2.5" ry="2.5" style="stroke:#181818;stroke-width:0.5;" width="214" x="282" y="825.46"/><polygon fill="#F1F1F1" points="479,830.46,479,844.46,491,844.46,491,836.46,485,830.46,479,830.46" style="stroke:#181818;stroke-width:0.5;"/><line style="stroke:#181818;stroke-width:0.5;" x1="485" x2="485" y1="830.46" y2="836.46"/><line style="stroke:#181818;stroke-width:0.5;" x1="491" x2="485" y1="836.46" y2="836.46"/><text fill="#000000" font-family="sans-serif" font-size="14" lengthAdjust="spacing" textLength="184" x="292" y="851.4551">/docker-entrypoint-initdb.d</text></g><!--entity 4a3bb96508124f57cf57934a66ef87ad--><g id="elem_4a3bb96508124f57cf57934a66ef87ad"><rect fill="#F1F1F1" height="78.8906" rx="2.5" ry="2.5" style="stroke:#181818;stroke-width:0.5;" width="72" x="1300" y="359.78"/><rect fill="#F1F1F1" height="10" style="stroke:#181818;stroke-width:0.5;" width="15" x="1352" y="364.78"/><rect fill="#F1F1F1" height="2" style="stroke:#181818;stroke-width:0.5;" width="4" x="1350" y="366.78"/><rect fill="#F1F1F1" height="2" style="stroke:#181818;stroke-width:0.5;" width="4" x="1350" y="370.78"/><text fill="#000000" font-family="sans-serif" font-size="14" font-weight="bold" lengthAdjust="spacing" textLength="32" x="1315" y="392.7751">rest</text><text fill="#000000" font-family="sans-serif" font-size="14" lengthAdjust="spacing" textLength="4" x="1315" y="409.072">&#160;</text><text fill="#000000" font-family="sans-serif" font-size="14" lengthAdjust="spacing" textLength="4" x="1315" y="425.3689">&#160;</text></g><!--entity a534db802fb67c89be6544a68eeeb59b--><g id="elem_a534db802fb67c89be6544a68eeeb59b"><rect fill="#F1F1F1" height="78.8906" rx="2.5" ry="2.5" style="stroke:#181818;stroke-width:0.5;" width="86" x="1066" y="127"/><rect fill="#F1F1F1" height="10" style="stroke:#181818;stroke-width:0.5;" width="15" x="1132" y="132"/><rect fill="#F1F1F1" height="2" style="stroke:#181818;stroke-width:0.5;" width="4" x="1130" y="134"/><rect fill="#F1F1F1" height="2" style="stroke:#181818;stroke-width:0.5;" width="4" x="1130" y="138"/><text fill="#000000" font-family="sans-serif" font-size="14" font-weight="bold" lengthAdjust="spacing" textLength="46" x="1081" y="159.9951">views</text><text fill="#000000" font-family="sans-serif" font-size="14" lengthAdjust="spacing" textLength="4" x="1081" y="176.292">&#160;</text><text fill="#000000" font-family="sans-serif" font-size="14" lengthAdjust="spacing" textLength="4" x="1081" y="192.5889">&#160;</text></g><!--entity 0cd8581b3b1d7925ef7b7e6bd4617bf9--><g id="elem_0cd8581b3b1d7925ef7b7e6bd4617bf9"><rect fill="#F1F1F1" height="78.8906" rx="2.5" ry="2.5" style="stroke:#181818;stroke-width:0.5;" width="80" x="1187" y="127"/><rect fill="#F1F1F1" height="10" style="stroke:#181818;stroke-width:0.5;" width="15" x="1247" y="132"/><rect fill="#F1F1F1" height="2" style="stroke:#181818;stroke-width:0.5;" width="4" x="1245" y="134"/><rect fill="#F1F1F1" height="2" style="stroke:#181818;stroke-width:0.5;" width="4" x="1245" y="138"/><text fill="#000000" font-family="sans-serif" font-size="14" font-weight="bold" lengthAdjust="spacing" textLength="40" x="1202" y="159.9951">tests</text><text fill="#000000" font-family="sans-serif" font-size="14" lengthAdjust="spacing" textLength="4" x="1202" y="176.292">&#160;</text><text fill="#000000" font-family="sans-serif" font-size="14" lengthAdjust="spacing" textLength="4" x="1202" y="192.5889">&#160;</text></g><!--entity 5f6a4437d6c6cb6ae1534698edb5b362--><g id="elem_5f6a4437d6c6cb6ae1534698edb5b362"><rect fill="#F1F1F1" height="78.8906" rx="2.5" ry="2.5" style="stroke:#181818;stroke-width:0.5;" width="78" x="1066" y="359.78"/><rect fill="#F1F1F1" height="10" style="stroke:#181818;stroke-width:0.5;" width="15" x="1124" y="364.78"/><rect fill="#F1F1F1" height="2" style="stroke:#181818;stroke-width:0.5;" width="4" x="1122" y="366.78"/><rect fill="#F1F1F1" height="2" style="stroke:#181818;stroke-width:0.5;" width="4" x="1122" y="370.78"/><text fill="#000000" font-family="sans-serif" font-size="14" font-weight="bold" lengthAdjust="spacing" textLength="38" x="1081" y="392.7751">apps</text><text fill="#000000" font-family="sans-serif" font-size="14" lengthAdjust="spacing" textLength="4" x="1081" y="409.072">&#160;</text><text fill="#000000" font-family="sans-serif" font-size="14" lengthAdjust="spacing" textLength="4" x="1081" y="425.3689">&#160;</text></g><!--entity 05615402d9f9793bcfdbf54006baf627--><g id="elem_05615402d9f9793bcfdbf54006baf627"><rect fill="#F1F1F1" height="78.8906" rx="2.5" ry="2.5" style="stroke:#181818;stroke-width:0.5;" width="97" x="940.5" y="548.57"/><rect fill="#F1F1F1" height="10" style="stroke:#181818;stroke-width:0.5;" width="15" x="1017.5" y="553.57"/><rect fill="#F1F1F1" height="2" style="stroke:#181818;stroke-width:0.5;" width="4" x="1015.5" y="555.57"/><rect fill="#F1F1F1" height="2" style="stroke:#181818;stroke-width:0.5;" width="4" x="1015.5" y="559.57"/><text fill="#000000" font-family="sans-serif" font-size="14" font-weight="bold" lengthAdjust="spacing" textLength="57" x="955.5" y="581.5651">models</text><text fill="#000000" font-family="sans-serif" font-size="14" lengthAdjust="spacing" textLength="4" x="955.5" y="597.862">&#160;</text><text fill="#000000" font-family="sans-serif" font-size="14" lengthAdjust="spacing" textLength="4" x="955.5" y="614.1589">&#160;</text></g><!--entity 71378bd19dd2d1ba6841308472c1a0b7--><g id="elem_71378bd19dd2d1ba6841308472c1a0b7"><rect fill="#F1F1F1" height="78.8906" rx="2.5" ry="2.5" style="stroke:#181818;stroke-width:0.5;" width="87" x="1178.5" y="359.78"/><rect fill="#F1F1F1" height="10" style="stroke:#181818;stroke-width:0.5;" width="15" x="1245.5" y="364.78"/><rect fill="#F1F1F1" height="2" style="stroke:#181818;stroke-width:0.5;" width="4" x="1243.5" y="366.78"/><rect fill="#F1F1F1" height="2" style="stroke:#181818;stroke-width:0.5;" width="4" x="1243.5" y="370.78"/><text fill="#000000" font-family="sans-serif" font-size="14" font-weight="bold" lengthAdjust="spacing" textLength="47" x="1193.5" y="392.7751">admin</text><text fill="#000000" font-family="sans-serif" font-size="14" lengthAdjust="spacing" textLength="4" x="1193.5" y="409.072">&#160;</text><text fill="#000000" font-family="sans-serif" font-size="14" lengthAdjust="spacing" textLength="4" x="1193.5" y="425.3689">&#160;</text></g><!--entity f2b19df875b5684a1977e336f64d2526--><g id="elem_f2b19df875b5684a1977e336f64d2526"><rect fill="#F1F1F1" height="78.8906" rx="2.5" ry="2.5" style="stroke:#181818;stroke-width:0.5;" width="107" x="812.5" y="359.78"/><rect fill="#F1F1F1" height="10" style="stroke:#181818;stroke-width:0.5;" width="15" x="899.5" y="364.78"/><rect fill="#F1F1F1" height="2" style="stroke:#181818;stroke-width:0.5;" width="4" x="897.5" y="366.78"/><rect fill="#F1F1F1" height="2" style="stroke:#181818;stroke-width:0.5;" width="4" x="897.5" y="370.78"/><text fill="#000000" font-family="sans-serif" font-size="14" font-weight="bold" lengthAdjust="spacing" textLength="67" x="827.5" y="392.7751">crawling</text><text fill="#000000" font-family="sans-serif" font-size="14" lengthAdjust="spacing" textLength="4" x="827.5" y="409.072">&#160;</text><text fill="#000000" font-family="sans-serif" font-size="14" lengthAdjust="spacing" textLength="4" x="827.5" y="425.3689">&#160;</text></g><!--entity 4f81886249e66ccff0e8050b3d4108a2--><g id="elem_4f81886249e66ccff0e8050b3d4108a2"><rect fill="#F1F1F1" height="78.8906" rx="2.5" ry="2.5" style="stroke:#181818;stroke-width:0.5;" width="82" x="928" y="127"/><rect fill="#F1F1F1" height="10" style="stroke:#181818;stroke-width:0.5;" width="15" x="990" y="132"/><rect fill="#F1F1F1" height="2" style="stroke:#181818;stroke-width:0.5;" width="4" x="988" y="134"/><rect fill="#F1F1F1" height="2" style="stroke:#181818;stroke-width:0.5;" width="4" x="988" y="138"/><text fill="#000000" font-family="sans-serif" font-size="14" font-weight="bold" lengthAdjust="spacing" textLength="42" x="943" y="159.9951">clean</text><text fill="#000000" font-family="sans-serif" font-size="14" lengthAdjust="spacing" textLength="4" x="943" y="176.292">&#160;</text><text fill="#000000" font-family="sans-serif" font-size="14" lengthAdjust="spacing" textLength="4" x="943" y="192.5889">&#160;</text></g><!--entity a56a3b37c1b997e3a78ac787aa810cc5--><g id="elem_a56a3b37c1b997e3a78ac787aa810cc5"><rect fill="#F1F1F1" height="78.8906" rx="2.5" ry="2.5" style="stroke:#181818;stroke-width:0.5;" width="80" x="813" y="127"/><rect fill="#F1F1F1" height="10" style="stroke:#181818;stroke-width:0.5;" width="15" x="873" y="132"/><rect fill="#F1F1F1" height="2" style="stroke:#181818;stroke-width:0.5;" width="4" x="871" y="134"/><rect fill="#F1F1F1" height="2" style="stroke:#181818;stroke-width:0.5;" width="4" x="871" y="138"/><text fill="#000000" font-family="sans-serif" font-size="14" font-weight="bold" lengthAdjust="spacing" textLength="40" x="828" y="159.9951">tests</text><text fill="#000000" font-family="sans-serif" font-size="14" lengthAdjust="spacing" textLength="4" x="828" y="176.292">&#160;</text><text fill="#000000" font-family="sans-serif" font-size="14" lengthAdjust="spacing" textLength="4" x="828" y="192.5889">&#160;</text></g><!--entity a34d8602a9bae6a16078eb6bc1672b8a--><g id="elem_a34d8602a9bae6a16078eb6bc1672b8a"><rect fill="#F1F1F1" height="78.8906" rx="2.5" ry="2.5" style="stroke:#181818;stroke-width:0.5;" width="70" x="1428" y="127"/><rect fill="#F1F1F1" height="10" style="stroke:#181818;stroke-width:0.5;" width="15" x="1478" y="132"/><rect fill="#F1F1F1" height="2" style="stroke:#181818;stroke-width:0.5;" width="4" x="1476" y="134"/><rect fill="#F1F1F1" height="2" style="stroke:#181818;stroke-width:0.5;" width="4" x="1476" y="138"/><text fill="#000000" font-family="sans-serif" font-size="14" font-weight="bold" lengthAdjust="spacing" textLength="30" x="1443" y="159.9951">urls</text><text fill="#000000" font-family="sans-serif" font-size="14" lengthAdjust="spacing" textLength="4" x="1443" y="176.292">&#160;</text><text fill="#000000" font-family="sans-serif" font-size="14" lengthAdjust="spacing" textLength="4" x="1443" y="192.5889">&#160;</text></g><!--entity 7752990e6d8e1cd54f0d4e34424fd827--><g id="elem_7752990e6d8e1cd54f0d4e34424fd827"><rect fill="#F1F1F1" height="78.8906" rx="2.5" ry="2.5" style="stroke:#181818;stroke-width:0.5;" width="86" x="1533" y="127"/><rect fill="#F1F1F1" height="10" style="stroke:#181818;stroke-width:0.5;" width="15" x="1599" y="132"/><rect fill="#F1F1F1" height="2" style="stroke:#181818;stroke-width:0.5;" width="4" x="1597" y="134"/><rect fill="#F1F1F1" height="2" style="stroke:#181818;stroke-width:0.5;" width="4" x="1597" y="138"/><text fill="#000000" font-family="sans-serif" font-size="14" font-weight="bold" lengthAdjust="spacing" textLength="46" x="1548" y="159.9951">views</text><text fill="#000000" font-family="sans-serif" font-size="14" lengthAdjust="spacing" textLength="4" x="1548" y="176.292">&#160;</text><text fill="#000000" font-family="sans-serif" font-size="14" lengthAdjust="spacing" textLength="4" x="1548" y="192.5889">&#160;</text></g><!--entity aecb0364306bb61d0689b2ddeb67129e--><g id="elem_aecb0364306bb61d0689b2ddeb67129e"><polygon fill="#F1F1F1" points="619,145.15,629,135.15,733,135.15,733,187.7437,723,197.7437,619,197.7437,619,145.15" style="stroke:#181818;stroke-width:0.5;"/><line style="stroke:#181818;stroke-width:0.5;" x1="723" x2="733" y1="145.15" y2="135.15"/><line style="stroke:#181818;stroke-width:0.5;" x1="619" x2="723" y1="145.15" y2="145.15"/><line style="stroke:#181818;stroke-width:0.5;" x1="723" x2="723" y1="145.15" y2="197.7437"/><text fill="#000000" font-family="sans-serif" font-size="14" font-weight="bold" lengthAdjust="spacing" textLength="38" x="634" y="168.1451">spps</text><text fill="#000000" font-family="sans-serif" font-size="14" lengthAdjust="spacing" textLength="74" x="634" y="184.442">&#171;network&#187;</text></g><!--entity e859f25eb7065dd4eea4fb946973908f--><g id="elem_e859f25eb7065dd4eea4fb946973908f"><ellipse cx="735" cy="735.46" fill="#F1F1F1" rx="8" ry="8" style="stroke:#181818;stroke-width:0.5;"/><text fill="#000000" font-family="sans-serif" font-size="14" lengthAdjust="spacing" textLength="36" x="717" y="765.4551">3306</text></g><!--entity c945144aceccc25a1b6238b7379ef75b--><g id="elem_c945144aceccc25a1b6238b7379ef75b"><ellipse cx="827" cy="735.46" fill="#F1F1F1" rx="8" ry="8" style="stroke:#181818;stroke-width:0.5;"/><text fill="#000000" font-family="sans-serif" font-size="14" lengthAdjust="spacing" textLength="45" x="804.5" y="765.4551">33060</text></g><!--entity ed9cef045247184ff16291c50049a2b3--><g id="elem_ed9cef045247184ff16291c50049a2b3"><rect fill="#F1F1F1" height="39.2969" rx="2.5" ry="2.5" style="stroke:#181818;stroke-width:0.5;" width="137" x="118.5" y="959.75"/><polygon fill="#F1F1F1" points="238.5,964.75,238.5,978.75,250.5,978.75,250.5,970.75,244.5,964.75,238.5,964.75" style="stroke:#181818;stroke-width:0.5;"/><line style="stroke:#181818;stroke-width:0.5;" x1="244.5" x2="244.5" y1="964.75" y2="970.75"/><line style="stroke:#181818;stroke-width:0.5;" x1="250.5" x2="244.5" y1="970.75" y2="970.75"/><text fill="#000000" font-family="sans-serif" font-size="14" lengthAdjust="spacing" textLength="107" x="128.5" y="985.7451">./db/mysql/data</text></g><!--entity e919f06df6a1da2c6349713aea37f604--><g id="elem_e919f06df6a1da2c6349713aea37f604"><rect fill="#F1F1F1" height="39.2969" rx="2.5" ry="2.5" style="stroke:#181818;stroke-width:0.5;" width="127" x="325.5" y="959.75"/><polygon fill="#F1F1F1" points="435.5,964.75,435.5,978.75,447.5,978.75,447.5,970.75,441.5,964.75,435.5,964.75" style="stroke:#181818;stroke-width:0.5;"/><line style="stroke:#181818;stroke-width:0.5;" x1="441.5" x2="441.5" y1="964.75" y2="970.75"/><line style="stroke:#181818;stroke-width:0.5;" x1="447.5" x2="441.5" y1="970.75" y2="970.75"/><text fill="#000000" font-family="sans-serif" font-size="14" lengthAdjust="spacing" textLength="97" x="335.5" y="985.7451">./db/mysql/init</text></g><!--link 2f212a63290cbf6f793e32c9b888bf60 to 56d413f1a16ecf6273b747ab3ec85f55--><g id="link_2f212a63290cbf6f793e32c9b888bf60_56d413f1a16ecf6273b747ab3ec85f55"><path codeLine="24" d="M402.88,487.88 C429.54,525.03 457.06,563.4 468.5,579.35 " fill="none" id="2f212a63290cbf6f793e32c9b888bf60-56d413f1a16ecf6273b747ab3ec85f55" style="stroke:#181818;stroke-width:1.0;"/></g><!--link 56d413f1a16ecf6273b747ab3ec85f55 to e859f25eb7065dd4eea4fb946973908f--><g id="link_56d413f1a16ecf6273b747ab3ec85f55_e859f25eb7065dd4eea4fb946973908f"><path codeLine="25" d="M481.63,596.74 C494.44,609.42 521.5,634.87 548,651.46 C612.13,691.6 699,722.4 726.37,731.62 " fill="none" id="56d413f1a16ecf6273b747ab3ec85f55-e859f25eb7065dd4eea4fb946973908f" style="stroke:#181818;stroke-width:1.0;"/></g><!--link 2f212a63290cbf6f793e32c9b888bf60 to 948e1669192c12608968517866d35c09--><g id="link_2f212a63290cbf6f793e32c9b888bf60_948e1669192c12608968517866d35c09"><path codeLine="26" d="M459.66,487.88 C511.68,525.98 565.45,565.36 586.15,580.53 " fill="none" id="2f212a63290cbf6f793e32c9b888bf60-948e1669192c12608968517866d35c09" style="stroke:#181818;stroke-width:1.0;"/></g><!--link 948e1669192c12608968517866d35c09 to c945144aceccc25a1b6238b7379ef75b--><g id="link_948e1669192c12608968517866d35c09_c945144aceccc25a1b6238b7379ef75b"><path codeLine="27" d="M603.8,592.18 C627.45,600.92 693.94,626.85 743,659.46 C774.26,680.23 805.88,712.03 819.74,726.63 " fill="none" id="948e1669192c12608968517866d35c09-c945144aceccc25a1b6238b7379ef75b" style="stroke:#181818;stroke-width:1.0;"/></g><!--link 98399632ea7e7ee0ad6ee6e4295513da to ed9cef045247184ff16291c50049a2b3--><g id="link_98399632ea7e7ee0ad6ee6e4295513da_ed9cef045247184ff16291c50049a2b3"><path codeLine="28" d="M187,865.06 C187,890.21 187,934.35 187,959.48 " fill="none" id="98399632ea7e7ee0ad6ee6e4295513da-ed9cef045247184ff16291c50049a2b3" style="stroke:#181818;stroke-width:1.0;"/><text fill="#000000" font-family="sans-serif" font-size="13" lengthAdjust="spacing" textLength="14" x="188" y="925.8169">rw</text></g><!--link 2f212a63290cbf6f793e32c9b888bf60 to 98399632ea7e7ee0ad6ee6e4295513da--><g id="link_2f212a63290cbf6f793e32c9b888bf60_98399632ea7e7ee0ad6ee6e4295513da"><path codeLine="29" d="M309.77,487.93 C272.93,594.8 215.1254,762.5176 195.4554,819.5776 " fill="none" id="2f212a63290cbf6f793e32c9b888bf60-to-98399632ea7e7ee0ad6ee6e4295513da" style="stroke:#181818;stroke-width:1.0;stroke-dasharray:7.0,7.0;"/><polygon fill="#181818" points="193.5,825.25,200.2147,818.045,195.1295,820.523,192.6515,815.4378,193.5,825.25" style="stroke:#181818;stroke-width:1.0;"/><text fill="#000000" font-family="sans-serif" font-size="13" lengthAdjust="spacing" textLength="23" x="250" y="672.5269">use</text></g><!--link f8b4840ea2366506d4285845c3e62172 to e919f06df6a1da2c6349713aea37f604--><g id="link_f8b4840ea2366506d4285845c3e62172_e919f06df6a1da2c6349713aea37f604"><path codeLine="30" d="M389,865.06 C389,890.21 389,934.35 389,959.48 " fill="none" id="f8b4840ea2366506d4285845c3e62172-e919f06df6a1da2c6349713aea37f604" style="stroke:#181818;stroke-width:1.0;"/><text fill="#000000" font-family="sans-serif" font-size="13" lengthAdjust="spacing" textLength="14" x="390" y="925.8169">rw</text></g><!--link 2f212a63290cbf6f793e32c9b888bf60 to f8b4840ea2366506d4285845c3e62172--><g id="link_2f212a63290cbf6f793e32c9b888bf60_f8b4840ea2366506d4285845c3e62172"><path codeLine="31" d="M349.68,487.93 C361.48,594.8 379.9615,762.2262 386.2615,819.2862 " fill="none" id="2f212a63290cbf6f793e32c9b888bf60-to-f8b4840ea2366506d4285845c3e62172" style="stroke:#181818;stroke-width:1.0;stroke-dasharray:7.0,7.0;"/><polygon fill="#181818" points="386.92,825.25,389.9082,815.8654,386.3713,820.2802,381.9565,816.7433,386.92,825.25" style="stroke:#181818;stroke-width:1.0;"/><text fill="#000000" font-family="sans-serif" font-size="13" lengthAdjust="spacing" textLength="23" x="371" y="672.5269">use</text></g><!--reverse link aecb0364306bb61d0689b2ddeb67129e to 81c3b080dad537de7e10e0987a4bf52e--><g id="link_aecb0364306bb61d0689b2ddeb67129e_81c3b080dad537de7e10e0987a4bf52e"><path codeLine="32" d="M676,204.09 C676,219.54 676,233.5069 676,254.8317 C676,257.4973 676,260.1841 676,262.886 " fill="none" id="aecb0364306bb61d0689b2ddeb67129e-backto-81c3b080dad537de7e10e0987a4bf52e" style="stroke:#181818;stroke-width:1.0;"/><polygon fill="#181818" points="676,198.09,672,207.09,676,203.09,680,207.09,676,198.09" style="stroke:#181818;stroke-width:1.0;"/></g><!--link 4a3bb96508124f57cf57934a66ef87ad to 05615402d9f9793bcfdbf54006baf627--><g id="link_4a3bb96508124f57cf57934a66ef87ad_05615402d9f9793bcfdbf54006baf627"><path codeLine="96" d="M1319.96,438.92 C1311.23,455.89 1298.91,474.81 1283,487.57 C1209.95,546.12 1106.5559,570.0598 1043.8459,580.0098 " fill="none" id="4a3bb96508124f57cf57934a66ef87ad-to-05615402d9f9793bcfdbf54006baf627" style="stroke:#181818;stroke-width:1.0;"/><polygon fill="#181818" points="1037.92,580.95,1047.4356,583.4902,1042.8582,580.1665,1046.182,575.5891,1037.92,580.95" style="stroke:#181818;stroke-width:1.0;"/></g><!--link f2b19df875b5684a1977e336f64d2526 to 05615402d9f9793bcfdbf54006baf627--><g id="link_f2b19df875b5684a1977e336f64d2526_05615402d9f9793bcfdbf54006baf627"><path codeLine="97" d="M891.19,438.97 C901.08,454.14 912.55,471.69 923,487.57 C936.21,507.64 947.6774,524.9439 959.9074,543.3339 " fill="none" id="f2b19df875b5684a1977e336f64d2526-to-05615402d9f9793bcfdbf54006baf627" style="stroke:#181818;stroke-width:1.0;"/><polygon fill="#181818" points="963.23,548.33,961.5769,538.6209,960.4612,544.1666,954.9155,543.0509,963.23,548.33" style="stroke:#181818;stroke-width:1.0;"/></g><!--link 4f81886249e66ccff0e8050b3d4108a2 to 05615402d9f9793bcfdbf54006baf627--><g id="link_4f81886249e66ccff0e8050b3d4108a2_05615402d9f9793bcfdbf54006baf627"><path codeLine="98" d="M970.85,206.17 C974.65,285.99 983.0446,462.0768 986.8546,542.0868 " fill="none" id="4f81886249e66ccff0e8050b3d4108a2-to-05615402d9f9793bcfdbf54006baf627" style="stroke:#181818;stroke-width:1.0;"/><polygon fill="#181818" points="987.14,548.08,990.7074,538.8999,986.9022,543.0857,982.7164,539.2804,987.14,548.08" style="stroke:#181818;stroke-width:1.0;"/></g><!--link a56a3b37c1b997e3a78ac787aa810cc5 to f2b19df875b5684a1977e336f64d2526--><g id="link_a56a3b37c1b997e3a78ac787aa810cc5_f2b19df875b5684a1977e336f64d2526"><path codeLine="99" d="M855.19,206.34 C857.59,248.98 861.0822,311.0195 863.4822,353.5795 " fill="none" id="a56a3b37c1b997e3a78ac787aa810cc5-to-f2b19df875b5684a1977e336f64d2526" style="stroke:#181818;stroke-width:1.0;"/><polygon fill="#181818" points="863.82,359.57,867.3069,350.3591,863.5385,354.5779,859.3196,350.8095,863.82,359.57" style="stroke:#181818;stroke-width:1.0;"/></g><!--link a34d8602a9bae6a16078eb6bc1672b8a to 4a3bb96508124f57cf57934a66ef87ad--><g id="link_a34d8602a9bae6a16078eb6bc1672b8a_4a3bb96508124f57cf57934a66ef87ad"><path codeLine="100" d="M1441.6,206.34 C1418.13,248.98 1383.5927,311.7533 1360.1727,354.3133 " fill="none" id="a34d8602a9bae6a16078eb6bc1672b8a-to-4a3bb96508124f57cf57934a66ef87ad" style="stroke:#181818;stroke-width:1.0;"/><polygon fill="#181818" points="1357.28,359.57,1365.1234,353.6134,1359.6905,355.1894,1358.1145,349.7566,1357.28,359.57" style="stroke:#181818;stroke-width:1.0;"/></g><!--SRC=[bLRlQnj74Fr-VyKX-g4LIDwVixicDRWatnhSnYcbj2NCxCu6OUdaIhAL4Fo_T-xa-4TiUYv2Y3lspRutx-siSBbSxrUBJulkOzEj2xUJwNHxURcTJl_gNhtgUBTVRovEJYOjRblaJCg2img8G1S5CP4fXGc2Debl2xpzlFrdEG2YpfPKL0MBjw5mOArOfHZGKVM6sozDczUhotN7tQurrMY3O4rIcIhKa2nRanF56ELPjNysq-cgBpwTDWrtrulDkbi9yhXz-yVvhpz_U7Tszlx3BwVdvx-VlNlzutTVddbxFDkirxlB_Srp-DUdxqz_EZr_SmVz-k9urhVaMSnlvs_UtQtl7_vZxHDgzwnwJCzgiSAFVDmEAe_zF3GRtkvm8oLmkSVFswRvk_d-XtPYnOEXnHwAqxPgrC2vWWcMWWj8bdFqrVkxrMfOdbna3P1qCbaRK351z3f4W69zLgcHlHOLywwT75tZvcYveAFLdPyfsfJ48COWNhB20ip0pYJljItu45tM-O8tCv6_-NovNdIxsQ9Rx0hDor2gHdBHAKPZ0RmI5IRww7os34O7qzmyridHfseyKr3WIt7Cw2eb1odOf6BzHcTEpcldC7FEsNZK1CP62ZOahi7J0wRpetAhyQZW3W-xbPIvAkUD2pgwMZMOfBDNoYKqP9-7zm8FSEbl5KqLK1Sq6QnBGLjaj462x9hHgC_ARDpQiGL3bT76lOZBQ6x65WnLHbqP2zX1qOWvxN4xsUmduyBcypAVduockgztjUL9CvRP0xiHx_ylkz5Dlx8R7RQpgzd9-0o_n7mXCwYTR7bplSXyT9ZanHg9Mags91-o8GDMAMb_WfBPEfdazuFSeILAGZPguweibs-o3W6u2fqo3F9-iFLpN0RQFHAzTOMYCbNeP676u2Kl49cPVA81URtW_VO9LEKYVT5aIPUG9F0rK62Wua07gcc0xcJJfr0lNZadFOCCcG1P2mr8aGjvic06A0wNuhURUj3UALDIJIAHSYtIQwUakTWVoCEL9RVYyYbMGX4Y5PrACKMJY9J3hA8BSe1GqG6BPRNeRg5tpgomaz_-PZcOWwKccwm1qco3zef5lGAqfkHGQs_E7LRs5tZP7f1YfEe7IB4YDSVWg5WL35j84hYK7jbQ3GbPST2J5xAeKmXiBLHmnNW30-6ymVrI_amyaUjgr362SOa1SgvLSLHUaPKPfY8UcfoNZDqpgH0jP4FMb99iYI5Y3f8aZ5hbx9zOUpDyxfCirXtqaWeiOqU7u8iOHdAcGZ4gYDzUMOkFzA9aCO8oc0XPJZEe4EMOKDOG34KSjhtQF6TjyD8ynL1aAERYNLKoUArpSXnAl8t5mnZVDADdHcRBoMZUcb6FNbPcrAoNbHarRYWpnhaPDM8eCzR1Vm40]--></g></svg>